<svg xmlns="http://www.w3.org/2000/svg" viewBox="0 0 512 512">
  <rect width="512" height="512" rx="96" fill="#0f0f0f"/>
  <rect x="16" y="16" width="480" height="480" rx="80" fill="#1a1a1a" stroke="#00bcd4" stroke-width="3"/>
  <!-- Heart with cross -->
  <g transform="translate(256,230)">
    <path d="M0 60 C0 60 -110-30 -110-80 C-110-140 -50-160 0-110 C50-160 110-140 110-80 C110-30 0 60 0 60Z" fill="#f44336" opacity="0.9"/>
    <rect x="-8" y="-70" width="16" height="70" rx="4" fill="#fff"/>
    <rect x="-35" y="-52" width="70" height="16" rx="4" fill="#fff"/>
  </g>
  <!-- Kidney shape -->
  <g transform="translate(256,280)">
    <ellipse cx="0" cy="40" rx="35" ry="55" fill="#00bcd4" opacity="0.8"/>
    <ellipse cx="0" cy="25" rx="15" ry="20" fill="#1a1a1a"/>
  </g>
  <!-- Check mark -->
  <g transform="translate(340,340)">
    <circle cx="0" cy="0" r="36" fill="#4caf50"/>
    <path d="M-16 0 L-6 10 L16-10" fill="none" stroke="#fff" stroke-width="6" stroke-linecap="round" stroke-linejoin="round"/>
  </g>
  <!-- Text -->
  <text x="256" y="440" text-anchor="middle" font-family="sans-serif" font-size="40" font-weight="700" fill="#e8e8e8">건강관리</text>
</svg>
